<svg xmlns="http://www.w3.org/2000/svg" width="918" height="179" fill="none"><g clip-path="url(#a)"><path fill="#000" fill-rule="evenodd" d="M279.297 108.859h21.738V62.366c3.862-2.95 9.153-5.76 14.731-5.76 3.003 0 5.577.844 7.437 2.95 1.716 1.967 2.431 4.496 2.431 9.693v39.61h21.738V65.737c0-9.973-1.859-16.013-6.15-20.508-4.433-4.495-11.012-7.023-18.448-7.023-8.867 0-16.304 3.652-21.739 8.007l-.286-.14V39.75h-21.452v69.108Zm103.114-34.554c0-9.832 7.579-17.698 17.447-17.698 9.868 0 17.448 7.866 17.448 17.698 0 9.833-7.58 17.699-17.448 17.699s-17.447-7.866-17.447-17.699Zm-21.739 0c0 20.368 16.733 36.099 39.186 36.099 22.454 0 39.186-15.731 39.186-36.099 0-20.367-16.732-36.099-39.186-36.099-22.453 0-39.186 15.732-39.186 36.1Zm103.4 29.217c4.433 4.635 11.155 6.882 18.306 6.882 6.149 0 12.585-1.685 15.874-3.792V89.616c-2.86 1.404-6.864 2.81-10.44 2.81-6.578 0-8.152-5.058-8.152-11.8V57.45h18.592V39.75H479.66V18.12l-21.738 3.652v17.98h-11.441V57.45h11.441v25.424c0 10.956 2.432 16.715 6.15 20.648Zm45.478-85.683c0 6.742 5.721 12.22 12.586 12.22 6.864 0 12.585-5.478 12.585-12.22 0-6.742-5.721-12.22-12.585-12.22-6.865 0-12.586 5.478-12.586 12.22Zm1.717 91.02h21.738V39.751h-21.738v69.108Zm43.619 0h21.738v-51.41h16.304V39.752h-16.304V28.093c0-5.9 1.43-10.114 8.152-10.114 2.431 0 6.722.562 9.439 1.265V1.966C590.354.562 586.206 0 582.202 0c-7.008 0-14.874 1.686-19.879 6.461-5.435 5.057-7.437 13.344-7.437 23.036v10.254h-10.011V57.45h10.011v51.409Zm48.196-91.02c0 6.742 5.721 12.22 12.585 12.22 6.865 0 12.586-5.478 12.586-12.22 0-6.742-5.721-12.22-12.586-12.22-6.864 0-12.585 5.478-12.585 12.22Zm1.716 91.02h21.738V39.751h-21.738v69.108Zm35.468-34.413c0 20.788 16.589 35.958 39.186 35.958 8.009 0 16.303-1.685 23.025-5.337V85.402c-5.864 4.354-13.729 6.883-20.594 6.883-11.727 0-19.879-7.445-19.879-17.98 0-10.394 8.009-18.12 19.593-18.12 6.722 0 13.586 2.529 19.879 6.462V42.84c-5.721-2.809-13.014-4.635-20.88-4.635-22.024 0-40.33 14.468-40.33 36.24Zm97.536 35.958c8.008 0 15.016-2.528 19.593-5.759h.286c3.861 3.933 9.439 5.479 15.159 5.479 4.148 0 8.009-.843 10.44-2.107V92.004a8.32 8.32 0 0 1-3.575.843c-3.003 0-4.291-2.248-4.291-5.479V63.911c0-8.709-2.574-14.89-7.865-19.103-5.578-4.495-14.016-6.602-23.455-6.602-10.297 0-18.878 2.528-24.598 5.338v18.4c5.577-2.95 12.728-5.478 20.594-5.478 5.148 0 8.867 1.124 10.869 2.95 1.573 1.405 2.717 3.933 2.717 7.304v2.67c-3.861-.844-8.009-1.265-12.156-1.265-7.294 0-14.301 1.264-19.736 4.916-5.005 3.371-8.581 9.13-8.581 16.715 0 7.164 3.146 12.642 8.295 16.154 4.576 3.09 10.297 4.494 16.304 4.494Zm6.006-15.731c-5.005 0-9.01-2.388-9.01-6.883 0-5.338 5.578-7.023 11.156-7.023 2.288 0 5.434.28 7.722.983v10.113c-2.574 1.545-6.149 2.81-9.868 2.81Zm50.77 14.186h21.739V67.001c5.148-5.9 11.441-8.147 19.021-8.147 2.002 0 4.147.281 5.863.703V39.47c-1.573-.421-3.146-.562-4.576-.562-8.724 0-15.589 3.512-20.451 10.254l-.286-.14v-9.27h-21.31v69.107Zm122.993-28.935c.286-1.826.429-4.916.429-7.304 0-23.177-16.304-34.414-33.608-34.414-19.45 0-36.898 14.327-36.898 36.38 0 21.632 16.733 35.818 39.901 35.818 9.296 0 19.879-2.106 26.744-6.32v-17.84c-7.437 4.917-16.018 7.586-23.884 7.586-10.011 0-18.02-4.355-20.451-13.906h47.767ZM884.106 54.5c7.007 0 12.585 4.495 13.872 11.94h-28.317c1.859-7.867 7.723-11.94 14.445-11.94Z" clip-rule="evenodd"/><path fill="#10D1C4" d="M138.566 138.547c6.226 0 12.26-.821 18-2.362l-32.083-32.275 41.492 41.738c6.757 6.794 6.757 17.815 0 24.605-6.752 6.794-17.705 6.794-24.457 0l-31.523-31.706h28.571Z"/><path fill="#000" fill-rule="evenodd" d="m124.483 103.91 32.083 32.275a69.334 69.334 0 0 1-18 2.362h-28.571l-32.688-32.88a17.633 17.633 0 0 1-1.529-1.757h48.705Z" clip-rule="evenodd"/><path fill="#10D1C4" d="m124.483 103.91 32.083 32.275a69.334 69.334 0 0 1-18 2.362h-28.571l-32.688-32.88a17.633 17.633 0 0 1-1.529-1.757h48.705Z" opacity=".6"/><path fill="#000" fill-rule="evenodd" d="m139.805 138.536.673-.015c.2-.005.399-.012.598-.019l-.598.019c.413-.011.822-.026 1.232-.044l-.634.025a74.654 74.654 0 0 0 1.501-.069l-.867.044c.418-.019.835-.041 1.251-.067l-.384.023c.491-.028.982-.062 1.471-.1l-1.087.077a71.571 71.571 0 0 0 2.551-.207l-1 .092c.479-.041.956-.086 1.432-.136l-.432.044c.44-.044.878-.092 1.315-.144l-.883.1c.455-.049.91-.101 1.363-.158l-.48.058a70.52 70.52 0 0 0 1.224-.156l-.744.098c.437-.055.871-.114 1.305-.177l-.561.079a68.46 68.46 0 0 0 3.66-.602l-.697.13c.376-.068.751-.139 1.124-.213l-.427.083a70.85 70.85 0 0 0 1.15-.231l-.723.148c.503-.1 1.004-.205 1.503-.316l-.78.168c.373-.078.746-.159 1.117-.244l-.337.076c.441-.098.88-.2 1.317-.306l-.98.23c.868-.197 1.73-.411 2.586-.64l-32.081-32.276H75.778a17.62 17.62 0 0 0 1.529 1.757l32.688 32.88H69.283C31.022 138.547 0 107.529 0 69.273 0 31.016 31.021 0 69.283 0h69.283c38.259 0 69.283 31.016 69.283 69.273 0 32.031-21.749 58.989-51.285 66.913l.002-.001-.178.048c-.24.063-.48.126-.721.187l.899-.235a71.377 71.377 0 0 1-2.925.717c-.26.058-.52.114-.78.168a54.353 54.353 0 0 1-1.15.231 67.897 67.897 0 0 1-7.199.994 62.286 62.286 0 0 1-1.551.115l-.384.023a81.1 81.1 0 0 1-1.501.069c-.199.007-.398.014-.598.019a73.1 73.1 0 0 1-.673.015Zm-1.239-103.9H69.283c-19.13 0-34.642 15.509-34.642 34.637 0 18.9 15.144 34.266 33.96 34.629l.682.007h69.283c19.129 0 34.642-15.509 34.642-34.636 0-19.128-15.513-34.637-34.642-34.637Z" clip-rule="evenodd"/><g fill="#000" opacity=".7"><g clip-path="url(#b)" opacity=".7"><path d="M793.39 168.091c2.117 2.449 1.448 6.234-1.449 7.681-3.233 1.67-6.911 2.56-10.7 2.56-13.821 0-24.856-11.689-23.964-25.604.78-12.022 10.7-21.596 22.738-22.264 4.346-.222 8.359.668 11.926 2.449 2.897 1.447 3.566 5.344 1.449 7.681-1.449 1.67-3.902 2.227-5.908 1.225-1.895-1.002-4.012-1.447-6.241-1.447-8.248 0-14.936 7.124-13.933 15.585.669 6.345 5.796 11.577 12.149 12.356a14.788 14.788 0 0 0 8.025-1.336c2.006-1.002 4.459-.556 5.908 1.114ZM799.743 141.262v-15.139c0-3.006 2.452-5.455 5.461-5.455 3.01 0 5.462 2.449 5.462 5.455v4.786h5.573c2.897 0 5.238 2.004 5.238 4.899 0 2.894-2.341 4.564-5.238 4.564h-5.573v22.375a5.99 5.99 0 0 0 6.018 6.012 4.754 4.754 0 0 1 4.793 4.786 4.755 4.755 0 0 1-4.793 4.787h-1.449c-8.47 0-15.381-6.902-15.381-15.362v-21.708h-.111ZM844.883 141.262v-15.139c0-3.006 2.452-5.455 5.462-5.455 3.009 0 5.461 2.449 5.461 5.455v4.786h5.573a5.23 5.23 0 0 1 5.239 5.233 5.23 5.23 0 0 1-5.239 5.232h-5.573v21.373a5.99 5.99 0 0 0 6.019 6.012 4.754 4.754 0 0 1 4.793 4.786 4.755 4.755 0 0 1-4.793 4.787h-1.449c-8.471 0-15.381-6.902-15.381-15.362v-21.708h-.112ZM832.846 178.332c-3.01 0-5.35-2.449-5.35-5.343v-32.506c0-2.226 2.452-4.787 5.35-4.787 3.009 0 5.35 2.672 5.35 4.787v32.394c0 3.006-2.452 5.455-5.35 5.455ZM837.973 125.9c0 2.783-2.341 5.121-5.127 5.121-2.787 0-5.127-2.338-5.127-5.121 0-2.783 2.34-5.121 5.127-5.121 2.786 0 5.127 2.338 5.127 5.121ZM917.889 154.398c0-13.247-10.7-23.934-23.964-23.934h-.111c-13.264 0-23.964 10.687-23.964 23.934 0 13.247 10.7 23.934 23.964 23.934h.111c2.675 0 5.239-.445 7.691-1.336 3.232-1.113 6.241-2.894 8.693-5.232 4.57-4.341 7.58-10.464 7.58-17.366Zm-24.075 14.027c-7.691 0-13.933-6.234-13.933-13.915 0-7.682 6.242-13.916 13.933-13.916 7.69 0 13.932 6.234 13.932 13.916 0 7.681-6.242 13.915-13.932 13.915ZM751.816 154.51v-21.819c0-1.114-1.004-1.893-2.007-1.67l-6.576 1.336c-.78.111-1.337.89-1.337 1.67v1.113c-3.901-2.895-8.805-4.564-13.932-4.564-13.153 0-23.853 10.686-23.853 23.822s10.7 23.823 23.853 23.823c5.238 0 10.031-1.67 13.932-4.564v1.67c0 .779.557 1.558 1.449 1.669l6.576 1.002c1.003.112 1.895-.668 1.895-1.67V154.51Zm-23.852 13.915c-7.691 0-13.933-6.234-13.933-13.915 0-7.682 6.242-13.916 13.933-13.916 7.69 0 13.932 6.234 13.932 13.916 0 7.681-6.242 13.915-13.932 13.915Z"/></g><g opacity=".7"><path d="M670.745 131.462h19.837v5.128h-13.869v6.094h13.575v5.128h-13.575v11.684h-5.968v-28.034ZM638.943 145.5c0-2.774.631-5.254 1.892-7.439a13.396 13.396 0 0 1 5.211-5.17c2.242-1.261 4.75-1.891 7.524-1.891 2.802 0 5.309.63 7.523 1.891a13.313 13.313 0 0 1 5.253 5.17c1.261 2.185 1.892 4.665 1.892 7.439s-.631 5.268-1.892 7.481c-1.26 2.186-3.012 3.909-5.253 5.17-2.214 1.233-4.721 1.849-7.523 1.849-2.774 0-5.282-.616-7.524-1.849-2.213-1.261-3.95-2.984-5.211-5.17-1.261-2.213-1.892-4.707-1.892-7.481Zm23.158 0c0-1.737-.35-3.306-1.05-4.707-.701-1.401-1.709-2.494-3.026-3.279-1.289-.812-2.774-1.218-4.455-1.218-1.682 0-3.167.406-4.455 1.218-1.289.785-2.284 1.878-2.985 3.279-.7 1.401-1.05 2.97-1.05 4.707 0 1.737.35 3.306 1.05 4.707.701 1.401 1.696 2.508 2.985 3.321 1.288.784 2.773 1.176 4.455 1.176 1.681 0 3.166-.392 4.455-1.176a8.063 8.063 0 0 0 3.026-3.321c.7-1.401 1.05-2.97 1.05-4.707ZM618.907 136.716h-8.195v-5.254h22.359v5.254h-8.153v22.78h-6.011v-22.78ZM596.178 149.451h-4.371v10.045h-5.968v-28.034h13.113c1.905 0 3.572.393 5.001 1.177 1.429.757 2.522 1.821 3.278 3.194.757 1.373 1.135 2.928 1.135 4.666 0 2.297-.602 4.161-1.807 5.589-1.177 1.429-2.62 2.34-4.329 2.732l6.304 10.676h-6.851l-5.505-10.045Zm6.094-8.994c0-1.149-.406-2.074-1.219-2.774-.785-.729-1.779-1.093-2.984-1.093h-6.262v7.733h6.262c1.205 0 2.199-.35 2.984-1.05.813-.729 1.219-1.668 1.219-2.816ZM574.97 154.662h-12.525l-1.765 4.834h-6.556l10.843-28.034h7.481l10.802 28.034h-6.515l-1.765-4.834Zm-10.928-5.169h9.289l-4.623-12.861-4.666 12.861ZM534 131.462h13.113c1.961 0 3.657.407 5.086 1.219 1.429.813 2.507 1.906 3.236 3.279.728 1.344 1.093 2.857 1.093 4.539 0 1.653-.379 3.166-1.135 4.539-.729 1.345-1.807 2.423-3.236 3.236-1.401.785-3.083 1.177-5.044 1.177h-7.145v10.045H534v-28.034Zm16.433 8.995c0-1.149-.392-2.074-1.176-2.774-.785-.729-1.766-1.093-2.943-1.093h-6.346v7.733h6.346c1.205 0 2.186-.35 2.943-1.05.784-.729 1.176-1.668 1.176-2.816Z"/></g></g></g><defs><clipPath id="a"><path fill="#fff" d="M0 0h918v179H0z"/></clipPath><clipPath id="b"><path fill="#fff" d="M704 120h214v59H704z"/></clipPath></defs></svg>